<svg xmlns="http://www.w3.org/2000/svg" width="401.304" height="551.89" viewBox="0 0 401.304 551.89">
  <g id="Group_7" data-name="Group 7" transform="translate(-1483.961 -3184.012)">
    <path id="path416" d="M1043.913-524.3h333.873c12.753,0,23.091-10.723,23.091-23.947v-14.239c0-13.23-10.338-23.953-23.091-23.953H1043.913a47.306,47.306,0,0,1,.611,61.416l-.611.722" transform="translate(475.318 4260.203)" fill="#143f9b"/>
    <path id="path418" d="M1404.279-568.559h185.189c12.751,0,23.087,10.723,23.087,23.947h0c0,13.23-10.335,23.953-23.087,23.953h-185.2a47.508,47.508,0,0,0,.016-47.9" transform="translate(120.103 4249.444)" fill="#fff"/>
    <path id="path420" d="M1135.893-697.753a1.388,1.388,0,0,1,1.376-1.965h176.666c13.847,0,25.072,10.107,25.072,22.566h0c0,12.465-11.225,22.566-25.072,22.566H1137.22a1.389,1.389,0,0,1-1.376-1.976h0a43.242,43.242,0,0,0,.048-41.192" transform="translate(500.631 4328.36)" fill="#296cfb"/>
    <path id="path422" d="M1349.7-689.172h87.557c16.252,0,29.423,8.466,29.423,18.912s-13.171,18.907-29.423,18.907H1349.13a43.164,43.164,0,0,0,.573-37.82" transform="translate(287.936 4322.015)" fill="#fff"/>
    <path id="path424" d="M1546.263-666.665h11.4c2.448,0,4.44.823,4.44,1.838v.165h-15.843v-2" transform="translate(113.991 4308.473)" fill="#1cc18a"/>
    <path id="path426" d="M1557.039-662.055c0-2.544,2.979-4.61,6.655-4.61h14.632c-2.788,0-5.045,1.567-5.045,3.495l.069,49.44-8.083-6.357-8.243,6.357.016-48.325" transform="translate(93.485 4308.473)" fill="#16d696"/>
    <path id="path428" d="M1264.566-762.979h102.792c9.115,0,16.505-8.768,16.505-19.592h0c0-10.819-7.39-19.587-16.505-19.587H1264.566c7.855,10.861,8.163,26.789.733,38.064l-.733,1.115" transform="translate(404.44 4389.995)" fill="#fff"/>
    <path id="path430" d="M1228.7-785.636h0c0-10.819-7.564-19.587-16.894-19.587H1107.458a.955.955,0,0,1-.876-1.025h0a.952.952,0,0,1,.876-1H1273c10.3,0,18.645,9.677,18.645,21.616h0c0,11.944-8.348,21.621-18.645,21.621H1107.458a.952.952,0,0,1-.876-1h0a.955.955,0,0,1,.876-1.025H1211.81c9.33,0,16.894-8.768,16.894-19.592" transform="translate(559.589 4393.06)" fill="#0b2969"/>
    <path id="path432" d="M1479.237-777.985h11.4c2.454,0,4.44.807,4.44,1.8v.165h-15.843v-1.965" transform="translate(207.715 4375.452)" fill="#0b2969"/>
    <path id="path434" d="M1490-773.465c0-2.5,2.979-4.52,6.649-4.52h14.637c-2.788,0-5.045,1.535-5.045,3.431l.069,48.479-8.089-6.235-8.237,6.235.016-47.39" transform="translate(187.228 4375.452)" fill="#143f9b"/>
    <path id="path436" d="M1956.987-1535.856l-15.179-3.994,10.287,137.183,18.206.605-9.183-128.812a5.563,5.563,0,0,0-4.132-4.982" transform="translate(-451.762 4833.846)" fill="#0b2969"/>
    <path id="path438" d="M1990.77-1398.834a4.908,4.908,0,0,0,1.041-.011c3.011-.356,5.242-3.357,4.982-6.7l-10.1-128.993c-.26-3.341-2.916-5.762-5.932-5.406s-5.242,3.356-4.982,6.7l10.1,128.993a5.656,5.656,0,0,0,4.891,5.417" transform="translate(-491.796 4833.922)" fill="#296cfb"/>
    <path id="path440" d="M1784.966-1188.5c-.005.1-.01.191-.021.287h0c-.473,5.247-4.541,9.172-9.082,8.763l-128.154-11.466c-4.541-.409-7.833-4.992-7.361-10.24.021-.223.048-.441.085-.658l144.533,13.315" transform="translate(-146.328 4630.456)" fill="#296cfb"/>
    <path id="path442" d="M1706.769-826.955c8.391,4.652,34.043-3.505,34.043-4.243.366,7.01,28.722,75.629,28.722,75.629l-.021,21.111s-58.426,2.783-57.587-2.379,3.983-1.806,15.635-11.557c1.036-.866,17.4-4.663,12.969-14.35-8.917-19.507-27.856-52.032-33.762-64.21" transform="translate(-157.372 4407.468)" fill="#f8cfb2"/>
    <path id="path444" d="M1763.8-619.555l-63.955.016c-2.305-.234-2.847-2.109-2.029-3.25,1.678-2.353,13.931-7.9,22.174-11.573,14.35,1.678,39.577-3.845,41.887-7.117,6.076,8.136,3.213,21.658,1.923,21.924" transform="translate(-149.744 4293.318)" fill="#0b2969"/>
    <path id="path446" d="M1773.153-1051.252c.865-2.592-55.064-26.326-57.566-23.618-4.429,4.8,30.257,94.839,30.257,94.839l-39.854,12.178s-41.431-104.026-39.705-123.05,22.487-40.65,67.46-26.815,39.408,66.467,39.408,66.467" transform="translate(-145.063 4582.501)" fill="#0b2969"/>
    <path id="path448" d="M1867.077-794.419c9.443-1.721,21.679-2.209,31.473-2.379-1.153,8.721-6.761,53.45-5.736,56.2a33.565,33.565,0,0,0,13.363,16.342s-43.428,39.184-46.052,34.659,1.939-3.919,4.775-18.849c.25-1.328,6.533-22.168,6.92-33.406.744-21.435-4.419-40.661-4.742-52.563" transform="translate(-354.788 4386.771)" fill="#f8cfb2"/>
    <path id="path450" d="M1357.645-1162.5c6.06-3.229,21.786-3.341,39.078-2.22a396.581,396.581,0,0,1,99.076,19.444l21.462,7.106-.069-22s68.278-11.424,70.652,5.5c3.58,25.488-.861,77.222-23.607,88.768-70.663,35.87-169.686-57.141-170.047-44.973-.478,16.342-14.26,77.158-17.781,103.787-9.793.165-26.624.159-33.927-1.514-1.418-52.159-2.087-144.687,15.163-153.891" transform="translate(168.58 4608.524)" fill="#143f9b"/>
    <path id="path452" d="M1908.361-638.618l-48.818,39c-1.933,1.28-3.537.17-3.633-1.232-.191-2.879,5.778-14.935,9.82-23,12.162-7.8,28.2-28.138,27.915-32.132,5.146,4.344,15.545,16.342,14.717,17.367" transform="translate(-355.65 4302.047)" fill="#0b2969"/>
    <path id="path454" d="M1167.732-1766.65c1.636-14.993,3.362-30.039,15.79-41.027,10.059-8.891,22.843-10.394,35.488-5.64,35.823,13.479,17.362,45.3,63.042,77.371,14.193,9.969,29.838,16.793,40.523,30.209,14.957,18.79,9.31,41.383-4.321,56.471-65.227,72.187-138.046-25.3-143.277-48.707-3.888-17.41-8.3-59.027-7.244-68.677" transform="translate(495.485 4999.979)" fill="#2c1200"/>
    <path id="path456" d="M1348.3-1529.482a200.315,200.315,0,0,1,10.818-17.616c5.528-9.825,19.8-14.791,19.8-14.791s4.774.1,10.261.366a4.372,4.372,0,0,0,1.036,1.822c2.06,1.545,13.872-.452,21.5,4.727,25.571,21.919,18.5,128.165,16.485,161.72l-77.875.738s9.82-72.2-6-90.754c-11.02-12.917-3.93-31.638,3.973-46.211" transform="translate(328.161 4847.107)" fill="#16d696"/>
    <path id="path458" d="M1469.642-1657.8s4.281,30.57,7.271,38-16.443,23.321-32.6,28.143,4.939-16.411,4.27-24.351-3.612-45.547-3.612-45.547l24.675,3.755" transform="translate(241.921 4907.073)" fill="#f8cfb2"/>
    <path id="path460" d="M1454.748-1650.775c-.473-6.219-.818-10.781-.818-10.781l24.675,3.755s.621,3.59,1.312,8.673c-10.006,5.8-19,3.973-25.169-1.646" transform="translate(232.958 4907.073)" fill="#efb994"/>
    <path id="path462" d="M1454.062-1792.731a28.044,28.044,0,0,1,15.731,11.355c6,9.161,10.123,36.141-9.656,48.733s-35.153-5.22-35.408-22.593,3.468-40.56,29.333-37.5" transform="translate(249.763 4986.164)" fill="#f8cfb2"/>
    <path id="path464" d="M1538.016-1726.3c1.689,4.19,5.035,6.793,7.478,5.81s3.054-5.178,1.365-9.369-5.035-6.793-7.473-5.81-3.054,5.178-1.37,9.369" transform="translate(131.945 4951.791)" fill="#f8cfb2"/>
    <path id="path466" d="M1398.556-1793.747s12.4,27.808,23.289,30.294,10.733,16.475,10.733,16.475-.244-32.312-10.452-39.726-23.57-7.043-23.57-7.043" transform="translate(302.353 4986.612)" fill="#2c1200"/>
    <path id="path468" d="M1407.732-1713.167c-1.434,4.514-.122,8.96,2.932,9.932s6.692-1.907,8.126-6.421.122-8.965-2.932-9.931-6.692,1.906-8.126,6.421" transform="translate(312.137 4942.103)" fill="#f8cfb2"/>
    <path id="path470" d="M1392.684-1328.846c4.668-1.689,11.626-1.9,11.509-2.517-.468-2.5-21.111,5.513-18.323,1.869,1.551-2.029,17-9.215,20.755-8.025,3.643,1.147,27.569,7.865,27.569,7.865l65.384-15.327s16.5-37.5,18.111-69.723c13.644,1.848,22.933,5.215,34.787,11.8-5.715,30.809-19.614,80.754-34.978,90.128-6.458,3.941-83.627-4.722-83.627-4.722s-17.006-1.2-19.783-2.267c-2.108-.813-7.536-3.867-10.484-4.7-6.713-1.9-18.663,2.868-18.7,1.556-.026-.961,3.006-4.212,7.781-5.938" transform="translate(187.894 4758.549)" fill="#f8cfb2"/>
    <path id="path472" d="M1369.759-1536.353c.627-9.916,4.382-19.491,14.935-22.572a21.364,21.364,0,0,1,19.1,4.185c6.214,5.077,7.95,13.219,7.918,20.925-.063,17.5-1.258,35.647-4.456,52.881-11.854-6.58-25.695-10.537-39.339-12.38.005-.106,1.009-29.938,1.843-43.041" transform="translate(335.426 4845.777)" fill="#1cc18a"/>
    <path id="path500" d="M1021.143-912.718h263.019a14.786,14.786,0,0,1,14.789,14.786v12.438a14.79,14.79,0,0,1-14.789,14.791H1021.143l.133-.143a30.114,30.114,0,0,0-.133-41.872" transform="translate(586.314 4456.517)" fill="#8febcd"/>
    <path id="path502" d="M1316.776-897.1h140.608a14.786,14.786,0,0,1,14.789,14.786h0a14.79,14.79,0,0,1-14.789,14.791h-140.6a30.152,30.152,0,0,0-.005-29.577" transform="translate(295.334 4447.122)" fill="#fff"/>
  </g>
</svg>
